<?xml version="1.0" standalone="no"?>
<!DOCTYPE svg PUBLIC "-//W3C//DTD SVG 20010904//EN"
 "http://www.w3.org/TR/2001/REC-SVG-20010904/DTD/svg10.dtd">
<svg version="1.0" xmlns="http://www.w3.org/2000/svg"
 width="700.000000pt" height="700.000000pt" viewBox="0 0 700.000000 700.000000"
 preserveAspectRatio="xMidYMid meet">
<metadata>
Created by potrace 1.14, written by Peter Selinger 2001-2017
</metadata>
<g transform="translate(0.000000,700.000000) scale(0.100000,-0.100000)"
fill="#000000" stroke="none">
<path d="M3070 6413 c-94 -9 -295 -49 -400 -79 -900 -256 -1563 -1026 -1685
-1957 -18 -138 -20 -412 -4 -558 l11 -103 -28 -20 c-121 -86 -182 -185 -191
-308 -6 -85 5 -133 44 -179 27 -31 91 -69 118 -69 11 0 3 -16 -26 -52 -55 -71
-90 -141 -92 -190 -1 -33 4 -45 26 -64 37 -32 63 -30 180 10 l98 34 9 -22 c5
-11 18 -43 30 -70 11 -27 17 -52 13 -56 -5 -4 -26 -12 -48 -18 -110 -31 -185
-122 -185 -223 0 -113 41 -154 215 -214 44 -15 87 -34 96 -42 12 -10 18 -40
23 -111 7 -113 18 -157 49 -203 47 -70 142 -94 256 -65 l63 16 77 -78 c180
-186 421 -290 771 -332 109 -13 378 -13 511 0 303 30 684 118 1001 231 60 22
111 39 113 39 2 0 15 -26 30 -57 32 -71 83 -126 150 -161 45 -24 61 -27 150
-27 92 0 104 2 154 30 183 101 233 357 84 434 l-36 18 134 73 c712 388 1157
826 1271 1250 30 114 32 310 4 416 l-19 72 36 43 c96 111 112 293 37 398 l-28
39 38 6 c89 14 110 83 55 185 -29 53 -119 145 -174 177 -28 16 -29 20 -24 68
7 65 -16 159 -62 252 -45 91 -129 173 -212 204 -68 26 -203 37 -280 23 l-52
-10 -16 47 c-18 55 -125 222 -215 335 -82 103 -263 284 -365 365 -208 165
-480 313 -725 394 -260 85 -466 117 -753 114 -106 0 -208 -3 -227 -5z m420
-93 c703 -61 1297 -413 1691 -1000 78 -117 98 -172 98 -270 1 -98 -23 -154
-119 -288 -104 -145 -157 -196 -295 -282 -424 -263 -976 -484 -1444 -580 -268
-54 -372 -64 -666 -64 -461 -1 -666 49 -867 209 -118 93 -231 269 -275 425
-27 98 -24 381 6 553 40 230 115 466 207 649 l26 53 -52 -50 c-226 -218 -446
-573 -554 -895 -90 -270 -122 -497 -113 -799 9 -277 29 -370 104 -470 22 -28
23 -32 6 -23 -35 19 -95 93 -121 150 -53 116 -71 478 -37 737 76 582 388 1124
853 1483 442 341 1009 509 1552 462z m2271 -1329 c62 -63 107 -158 116 -247
13 -123 -58 -161 -449 -244 -258 -54 -321 -75 -369 -120 -34 -32 -39 -43 -39
-83 0 -25 7 -76 16 -114 38 -162 -25 -367 -129 -416 -49 -23 -134 -38 -182
-33 -22 3 -95 13 -163 22 -161 21 -223 16 -262 -21 -42 -40 -47 -82 -22 -189
28 -124 32 -166 21 -244 -32 -223 -200 -344 -415 -299 -40 9 -153 47 -251 86
-268 105 -324 116 -419 84 -48 -16 -94 -57 -224 -197 -143 -155 -366 -190
-554 -88 -52 28 -235 198 -202 188 10 -3 48 -11 85 -17 141 -24 301 32 416
143 33 32 71 61 85 64 14 3 109 26 212 51 l187 46 145 -56 c194 -76 252 -90
351 -85 144 8 251 84 317 224 26 56 32 82 37 171 l6 105 105 60 c58 33 146 87
196 119 72 47 99 59 131 59 56 0 128 23 170 55 40 31 87 100 104 154 8 25 63
89 178 206 91 94 200 216 241 272 l75 101 88 22 c48 12 118 37 155 55 106 51
142 106 127 201 l-6 43 33 -11 c18 -6 58 -37 89 -67z m-361 54 c0 -8 -4 -15
-10 -15 -5 0 -7 7 -4 15 4 8 8 15 10 15 2 0 4 -7 4 -15z m553 -507 c54 -36
118 -101 138 -140 l19 -37 -48 -6 c-330 -44 -551 -106 -818 -230 l-90 -42 -13
76 c-28 158 -29 149 22 171 25 11 128 38 230 60 321 68 412 95 485 145 20 14
38 25 40 25 2 0 18 -10 35 -22z m46 -344 c48 -42 65 -88 59 -158 -10 -120 -80
-202 -248 -291 -65 -34 -122 -72 -134 -88 -19 -25 -22 -47 -26 -205 -3 -117
-9 -185 -18 -199 -27 -48 -103 -66 -326 -78 -184 -10 -295 -45 -386 -121 -17
-15 -82 -90 -144 -168 -132 -165 -198 -228 -263 -250 -80 -27 -83 -26 -83 52
0 171 70 296 227 409 34 24 176 104 316 177 377 198 508 285 667 445 75 75
103 112 132 171 43 89 60 166 57 257 -2 64 -1 68 22 74 13 4 43 7 66 8 36 1
50 -5 82 -35z m-1462 -542 c9 -5 2 -20 -24 -52 -20 -25 -53 -72 -74 -104 -29
-44 -39 -54 -39 -37 0 13 -9 59 -21 103 -28 110 -26 112 68 104 42 -4 83 -10
90 -14z m1424 -97 c2 -53 -3 -70 -38 -140 -68 -133 -159 -252 -313 -405 -191
-192 -386 -339 -695 -525 -119 -72 -466 -255 -483 -255 -4 0 -8 23 -9 50 -2
28 -11 75 -21 105 l-19 55 21 5 c12 2 64 11 117 19 53 8 121 25 152 36 129 48
249 156 366 330 118 175 135 186 330 206 147 16 191 31 283 99 53 39 82 87 96
161 15 76 63 245 75 265 19 31 112 75 129 60 4 -3 8 -33 9 -66z m-4873 -107
c18 -18 15 -72 -8 -149 l-21 -69 -45 0 c-96 0 -144 42 -144 125 0 69 8 93 34
98 50 10 173 6 184 -5z m782 -228 c139 -13 145 -15 214 -65 47 -34 47 -35 20
-35 -60 -1 -114 -38 -242 -169 -107 -109 -138 -135 -196 -162 -58 -27 -81 -32
-141 -32 -50 0 -83 5 -110 19 -54 26 -62 56 -39 150 17 74 19 76 73 114 31 21
92 75 136 120 77 79 81 81 120 77 22 -2 96 -10 165 -17z m-550 -99 c0 -48 -21
-78 -63 -90 -23 -7 -104 -35 -181 -62 -76 -28 -143 -48 -148 -47 -15 5 68 123
114 162 37 32 46 35 126 41 81 6 126 10 145 14 4 0 7 -7 7 -18z m4519 -38
c-99 -167 -314 -398 -509 -549 -137 -106 -341 -242 -510 -339 -169 -98 -468
-245 -497 -245 -12 0 -34 5 -49 10 -26 10 -21 14 103 69 347 154 711 369 993
587 142 110 356 323 430 427 58 83 75 100 39 40z m-2474 -8 c22 -4 105 -33
185 -64 262 -105 302 -116 420 -116 101 0 108 2 183 37 l78 37 -8 -37 c-4 -20
-7 -95 -6 -167 0 -147 14 -216 68 -354 37 -96 47 -188 22 -209 -48 -41 -128
-12 -227 82 -101 94 -142 93 -252 -9 -74 -69 -135 -100 -223 -116 -140 -24
-250 10 -353 109 -32 31 -118 137 -190 234 -72 97 -147 195 -167 216 l-36 40
63 34 c63 34 152 115 221 201 21 26 49 55 63 64 28 18 81 32 104 28 8 -2 33
-6 55 -10z m656 -881 c18 -20 54 -47 78 -62 l44 -26 -89 -33 c-203 -78 -506
-162 -709 -199 -141 -25 -364 -25 -427 -1 -133 51 -145 188 -22 247 87 43 182
30 304 -40 115 -67 202 -93 310 -94 156 -2 274 50 399 175 36 37 68 67 72 68
3 1 21 -15 40 -35z m-2029 -409 c289 -150 697 -191 1188 -119 235 34 567 119
816 209 69 26 128 44 131 41 3 -2 1 -17 -4 -33 -8 -24 -25 -33 -140 -75 -419
-152 -866 -239 -1238 -240 -200 -1 -328 13 -482 52 -184 47 -325 121 -440 233
-79 77 -64 95 21 26 34 -27 100 -70 148 -94z m2658 70 c28 -26 27 -99 -3 -156
-81 -153 -298 -163 -394 -17 -23 33 -28 55 -31 115 -3 40 -2 73 0 73 2 0 26
-7 52 -16 54 -19 141 -15 221 10 60 19 129 15 155 -9z"/>
<path d="M4466 5568 c-13 -19 -14 -25 -2 -43 26 -39 76 -26 76 19 0 46 -48 62
-74 24z"/>
<path d="M4136 5177 c-12 -9 -17 -23 -14 -42 3 -27 7 -30 38 -30 31 0 35 3 38
30 3 26 -17 55 -38 55 -3 0 -14 -6 -24 -13z"/>
<path d="M4943 5139 c-25 -9 -31 -47 -11 -67 33 -33 91 6 69 47 -13 24 -31 30
-58 20z"/>
<path d="M2960 4750 c-14 -26 -4 -57 20 -65 44 -14 80 41 48 73 -19 19 -56 14
-68 -8z"/>
<path d="M4060 4450 c-14 -26 -4 -57 20 -65 44 -14 80 41 48 73 -19 19 -56 14
-68 -8z"/>
<path d="M2200 4305 c-7 -8 -10 -25 -6 -39 11 -45 71 -45 82 0 8 30 -11 54
-41 54 -12 0 -28 -7 -35 -15z"/>
</g>
</svg>
